<svg width="30" height="20" viewBox="0 0 30 20" fill="none" xmlns="http://www.w3.org/2000/svg">
<path d="M29.3719 3.13556C29.2021 2.52974 28.8713 1.98126 28.4146 1.54843C27.9451 1.10229 27.3696 0.78315 26.7425 0.621142C24.3956 0.00253493 14.9927 0.00253507 14.9927 0.00253507C11.0728 -0.0420638 7.15384 0.154093 3.25795 0.589899C2.63083 0.763876 2.05643 1.09014 1.58584 1.53968C1.12344 1.98458 0.78852 2.5332 0.61356 3.13431C0.193273 5.39847 -0.0109306 7.69744 0.00370099 10.0002C-0.0112955 12.3009 0.192407 14.5992 0.61356 16.8661C0.784771 17.4648 1.11844 18.0109 1.58209 18.452C2.04573 18.8932 2.6231 19.2119 3.25795 19.3806C5.63615 19.9979 14.9927 19.9979 14.9927 19.9979C18.9177 20.0426 22.8416 19.8464 26.7425 19.4106C27.3696 19.2486 27.9451 18.9294 28.4146 18.4833C28.877 18.0421 29.2057 17.4935 29.3707 16.8961C29.8019 14.6329 30.0116 12.3329 29.9968 10.029C30.0292 7.71526 29.8198 5.40449 29.3719 3.13431V3.13556ZM12.0034 14.2792V5.72247L19.8266 10.0015L12.0034 14.2792Z" fill="#8D86C9"/>
</svg>
